# xmcd
#
# Track frame offsets:
#	150
#	61748
#	144429
#	156013
#	177573
#	214101
#	239096
#	276214
#	320432
#
# Disc length: 4620 seconds
#
# Revision: 1
# Processed by: cddbd v1.5.2PL0 Copyright (c) Steve Scherf et al.
# Submitted via: audiograbber 1.83.01
#
DISCID=84120a09
DTITLE=Grateful Dead - 79-10-28 Cape Cod Coliseum, South Yarmouth MA
DYEAR=1900
DGENRE=
TTITLE0=Mississippi Half-Step
TTITLE1=Franklin's Tower
TTITLE2=Mama Tried
TTITLE3=Mexicali Blues
TTITLE4=Althea
TTITLE5=Passenger
TTITLE6=Ramble On Rose
TTITLE7=The Music Never Stopped
TTITLE8=US Blues
EXTD=
EXTT0=
EXTT1=
EXTT2=
EXTT3=
EXTT4=
EXTT5=
EXTT6=
EXTT7=
EXTT8=
PLAYORDER=
